
<svg version="1.1" id="Layer_1" xmlns="http://www.w3.org/2000/svg" xmlns:xlink="http://www.w3.org/1999/xlink" x="0px" y="0px"
	 width="612px" height="612px" viewBox="0 0 612 612" enable-background="new 0 0 612 612" xml:space="preserve">
<g id="Layer_1_1_" display="none">
	<rect x="-622" y="434" display="inline" fill="#CCCCCC" width="612" height="612"/>
</g>
<g id="x" display="none">
	<path display="inline" fill="#FFFFFF" d="M-622,434v612h612V434H-622z M-96.399,909.199l-50.4,50.4L-316,790.4L-485.2,959.6
		l-50.4-50.4L-366.399,740l-169.201-169.199l50.4-50.4L-316,689.6L-146.8,520.4l50.4,50.4L-265.601,740L-96.399,909.199z"/>
</g>
<g id="manicule" display="none">
	<g display="inline">
		<path d="M-550,506c14.399,0,41.399,0,82.8,0c18,0,30.6,0,41.399,1.801c12.601-7.201,25.2-10.801,36-14.4s23.4-5.4,32.4-5.4
			c16.2,0,30.6,3.601,46.799,9c16.201,5.4,37.8,18,68.4,37.801c1.799,1.8,3.6,1.8,7.2,5.399c41.399,27,75.601,41.399,100.8,41.399
			h10.799V538.4l226.8,7.199v412.201L-19.002,974l-18-34.199l-86.4-5.4v-54h-5.399c-25.2,0-57.601,10.8-97.2,34.199
			c-12.601,7.201-23.4,12.601-28.8,16.201c-19.8,9-45,16.199-73.8,21.6c-28.799,5.4-68.399,7.199-115.2,7.199
			c-9,12.601-19.8,21.601-32.399,27c-12.601,5.4-25.201,5.4-41.4,5.4c-45,0-84.6-9-117-28.801
			c-32.399-19.799-48.6-43.199-48.6-68.398c0-9,1.799-18,7.2-27c3.601-9,10.8-18,21.601-27c-3.601-5.4-7.201-10.801-9-18
			c-1.8-7.201-3.601-12.602-3.601-19.801c0-12.6,3.601-23.4,10.8-34.199c7.2-9,16.2-18,30.6-25.201
			c-3.6-5.399-5.399-10.799-7.2-16.199c-1.8-5.4-1.8-9-1.8-12.6c0-7.201,1.8-14.4,5.4-21.602c3.6-7.199,9-14.398,16.2-21.6
			c-10.8,0-19.8,0-30.601,0c-9,0-19.799,0-30.6,0h-10.8c-73.8,0-129.601-5.4-165.601-18S-906.4,623-906.4,597.8
			c0-32.399,25.2-55.8,77.399-70.2c52.2-14.4,133.2-21.6,237.601-21.6H-550L-550,506z M-28,893l10.8-318.6L-91,572.6v318.6L-28,893z
			 M-326.8,630.199l-48.6,68.4c16.2,16.2,34.2,28.801,50.399,36c16.2,9,34.2,12.6,50.399,12.6c10.8,0,21.601-1.799,34.201-3.6
			c12.6-1.8,27-5.4,41.399-10.8l9,12.601c-16.2,10.799-32.399,19.799-46.8,25.199c-14.399,5.4-30.6,7.2-46.8,7.2
			c-7.2,0-12.6,0-19.799-1.8c-7.201-1.801-16.201-1.801-25.201-3.601c-3.6,23.399-10.799,41.399-21.6,52.2
			c-10.8,10.8-28.8,18-52.2,19.8c-1.8,21.601-7.201,37.8-12.601,46.8s-14.399,16.2-27,18V929h23.399c32.4,0,61.201-1.801,84.601-7.2
			s46.8-10.8,66.601-19.8c3.6-1.801,10.799-5.4,21.6-12.601c41.4-25.2,82.8-41.399,120.601-45V614h-3.601
			c-32.399,0-70.2-16.199-113.399-46.801c-1.8-1.799-5.4-3.6-9-5.398C-292.6,533-326.8,520.4-355.6,520.4
			c-23.399,0-46.799,7.199-72,23.4c-25.2,16.199-46.799,37.799-72,66.6c-10.799,12.6-19.799,25.199-27,39.6
			c-7.2,14.4-10.799,21.601-10.799,27c0,7.2,5.399,14.4,16.2,21.601c12.601,5.399,25.2,9,39.601,9c18,0,37.799-7.2,59.399-19.8
			c21.601-12.601,50.399-37.801,86.399-72L-326.8,630.199z M-451,729.199c-12.601,1.801-21.601,3.602-30.601,3.602
			c-21.6,0-39.6-3.602-54-12.602c-14.399-9-27-21.6-36-41.398c-9,5.398-16.2,12.6-19.799,18c-3.601,5.398-7.201,12.6-7.201,18
			c0,5.398,3.601,14.398,12.601,21.6c9,7.199,19.8,16.199,36,25.199c27,16.201,55.8,28.801,82.8,37.801s50.399,14.4,64.8,14.4
			c14.399,0,25.2-3.602,34.2-10.801s12.6-18,12.6-30.6c0-12.601-5.399-23.4-16.2-34.201C-382.601,727.4-395.2,722-413.2,718.4
			C-425.8,723.801-438.399,727.4-451,729.199z M-505,810.199c-28.8-10.799-59.399-25.199-95.399-39.6c-10.8,3.6-18,7.2-23.4,12.6
			c-5.399,5.4-7.2,12.602-7.2,21.602c0,19.799,16.2,37.799,50.399,55.799c34.201,18,70.201,27,106.201,27c16.2,0,27-3.6,34.2-10.799
			c7.2-7.201,10.8-18,10.8-34.201C-451,831.801-478,821-505,810.199z M-641.8,876.801c-3.6,5.398-5.399,12.6-5.399,19.799
			c0,16.201,12.6,30.601,37.8,46.801c25.2,16.199,54,21.6,84.6,21.6c18,0,32.4-3.6,43.2-9c10.8-5.399,16.201-14.399,16.201-23.399
			s-18-18-55.8-27s-72-21.601-106.2-39.601C-632.8,866-638.2,869.6-641.8,876.801z M-614.8,641c5.4,0,14.4,0,28.8-1.801
			c9,0,16.2,0,21.601-1.799c14.399-18,28.799-34.201,43.2-52.201c14.399-18,30.6-34.199,46.8-50.398c-12.601,1.799-27,0-43.201,0
			c-16.2,0-30.6,0-46.799,0h-16.201c-93.6,0-165.6,5.398-214.2,16.199c-48.6,10.801-73.8,25.199-73.8,46.801
			c0,14.398,16.201,27,46.8,34.199c30.601,7.199,77.4,10.801,138.601,10.801L-614.8,641L-614.8,641z"/>
	</g>
</g>
<g id="plus" display="none">
	<rect x="-442" y="722" display="inline" fill="#231F20" width="252" height="36"/>
	<rect x="-334" y="614" display="inline" fill="#231F20" width="36" height="252"/>
</g>
<g id="minus" display="none">
	<rect x="-442" y="722" display="inline" fill="#231F20" width="252" height="36"/>
</g>
<g id="arrow_right" display="none">
	<rect x="-782.2" y="675.199" display="inline" width="666" height="95.4"/>
	<polygon display="inline" points="-116.2,441.199 -116.2,1002.801 139.399,722 	"/>
</g>
<g id="arrow_up" display="none">
	<rect x="-370" y="516.801" display="inline" width="95.399" height="666"/>
	<polygon display="inline" points="-602.2,516.801 -40.601,516.801 -321.399,263 	"/>
</g>
<g id="arrow_down" display="none">
	<rect x="-370" y="263" display="inline" width="95.399" height="666"/>
	<polygon display="inline" points="-40.601,927.199 -602.2,927.199 -321.399,1182.801 	"/>
</g>
<g>
	<path fill="#F6EFE6" d="M0,0v612h612V0H0z M504,441c0,14.4-12.601,27-27,27H135c-14.399,0-27-12.6-27-27v-18
		c0-14.4,12.601-27,27-27h342c14.399,0,27,12.6,27,27V441z M504,315c0,14.4-12.601,27-27,27H135c-14.399,0-27-12.6-27-27v-18
		c0-14.4,12.601-27,27-27h342c14.399,0,27,12.6,27,27V315z M504,189c0,14.4-12.601,27-27,27H135c-14.399,0-27-12.6-27-27v-18
		c0-14.4,12.601-27,27-27h342c14.399,0,27,12.6,27,27V189z"/>
</g>
</svg>
